<svg xmlns="http://www.w3.org/2000/svg" viewBox="0 0 1699 521.33"><defs><style>.cls-1{fill:none;stroke-width:2px;}.cls-1,.cls-52{stroke:#000;stroke-miterlimit:10;}.cls-2,.cls-20,.cls-23,.cls-36,.cls-41,.cls-5{font-size:22.75px;}.cls-2,.cls-20,.cls-23,.cls-36,.cls-41,.cls-45,.cls-5{font-family:MyriadPro-Regular, Myriad Pro;}.cls-2,.cls-6{letter-spacing:0.01em;}.cls-3{letter-spacing:-0.02em;}.cls-4{letter-spacing:0em;}.cls-7{letter-spacing:0.01em;}.cls-8{letter-spacing:0em;}.cls-9{letter-spacing:0.02em;}.cls-10{letter-spacing:0.03em;}.cls-11{letter-spacing:0.01em;}.cls-12{letter-spacing:0.02em;}.cls-13,.cls-23{letter-spacing:0.01em;}.cls-14{letter-spacing:0em;}.cls-15{letter-spacing:0.01em;}.cls-16{letter-spacing:0em;}.cls-17{letter-spacing:0.02em;}.cls-18{letter-spacing:0em;}.cls-19{letter-spacing:-0.02em;}.cls-20{letter-spacing:0em;}.cls-21{letter-spacing:0em;}.cls-22{letter-spacing:0em;}.cls-24{letter-spacing:0.01em;}.cls-25{letter-spacing:0.02em;}.cls-26{letter-spacing:0em;}.cls-27{letter-spacing:0.02em;}.cls-28{letter-spacing:0.01em;}.cls-29{letter-spacing:-0.03em;}.cls-30,.cls-41{letter-spacing:0em;}.cls-31{letter-spacing:0.02em;}.cls-32{letter-spacing:0.01em;}.cls-33{letter-spacing:-0.01em;}.cls-34{letter-spacing:0.03em;}.cls-35{letter-spacing:0.02em;}.cls-36{letter-spacing:0.01em;}.cls-37{letter-spacing:0em;}.cls-38{letter-spacing:0em;}.cls-39{letter-spacing:0em;}.cls-40{letter-spacing:0em;}.cls-42{letter-spacing:0em;}.cls-43{letter-spacing:0em;}.cls-44{letter-spacing:0.01em;}.cls-45{font-size:32.38px;fill:#fff;letter-spacing:0.01em;}.cls-46,.cls-48,.cls-50{fill:#000;}.cls-47,.cls-48{letter-spacing:0.01em;}.cls-49{letter-spacing:0.01em;}.cls-50{letter-spacing:-0.03em;}.cls-51{letter-spacing:0.01em;}.cls-52{stroke-width:3px;}</style></defs><g id="Layer_2" data-name="Layer 2"><g id="Layer_1-2" data-name="Layer 1"><rect x="1" y="168.94" width="166" height="64.75"/><rect x="365.74" y="168.94" width="209.26" height="64.75"/><rect x="624" y="168.94" width="227" height="64.75"/><rect x="897.57" y="168.94" width="50.91" height="64.75"/><rect x="1270.93" y="168.96" width="162.07" height="64.75"/><rect x="1493" y="168.94" width="171.39" height="64.75"/><rect class="cls-1" x="1" y="168.94" width="1663.22" height="64.75"/><text class="cls-2" transform="translate(208.95 122.53) scale(1.02 1)">U<tspan class="cls-3" x="14.95" y="0">T</tspan><tspan x="25.87" y="0">C time</tspan><tspan x="-15.32" y="24.65">[hhmms</tspan><tspan class="cls-4" x="64.71" y="24.65">s</tspan><tspan x="73.7" y="24.65">.ss]</tspan></text><text class="cls-5" transform="translate(366.41 269.85) scale(1.02 1)"><tspan class="cls-6">L</tspan><tspan class="cls-7" x="10.97" y="0">a</tspan><tspan class="cls-6" x="22.07" y="0">ttitude </tspan><tspan class="cls-8" x="93.39" y="0">c</tspan><tspan class="cls-6" x="103.67" y="0">oo</tspan><tspan x="129.1" y="0">r</tspan><tspan class="cls-6" x="136.54" y="0">din</tspan><tspan class="cls-7" x="168" y="0">a</tspan><tspan class="cls-8" x="179.11" y="0">t</tspan><tspan class="cls-6" x="186.73" y="0">e</tspan></text><text class="cls-5" transform="translate(515.39 103.43) scale(1.02 1)"><tspan class="cls-6">L</tspan><tspan class="cls-7" x="10.97" y="0">a</tspan><tspan class="cls-6" x="22.07" y="0">ttitude di</tspan><tspan x="111.99" y="0">r</tspan><tspan class="cls-6" x="119.43" y="0">e</tspan><tspan class="cls-9" x="131.06" y="0">c</tspan><tspan class="cls-6" x="141.77" y="0">tion</tspan><tspan class="cls-6"><tspan x="50.75" y="24.65">N-No</tspan><tspan class="cls-10" x="101.08" y="24.65">r</tspan><tspan x="109.29" y="24.65">th</tspan></tspan><tspan class="cls-11"><tspan x="52.11" y="49.29">S</tspan><tspan class="cls-6" x="63.66" y="49.29">-</tspan><tspan class="cls-12" x="70.88" y="49.29">S</tspan><tspan class="cls-13" x="82.46" y="49.29">outh</tspan></tspan></text><text class="cls-5" transform="translate(773.27 102.99) scale(1.02 1)"><tspan class="cls-14">L</tspan><tspan class="cls-15" x="10.65" y="0">on</tspan><tspan class="cls-16" x="36.22" y="0">g</tspan><tspan class="cls-13" x="49.03" y="0">itude di</tspan><tspan x="123.44" y="0">r</tspan><tspan class="cls-13" x="130.88" y="0">e</tspan><tspan class="cls-17" x="142.5" y="0">c</tspan><tspan class="cls-15" x="153.22" y="0">tion</tspan><tspan class="cls-13"><tspan x="66.93" y="24.65">E-East</tspan></tspan><tspan class="cls-14"><tspan x="59.32" y="49.29">W</tspan><tspan class="cls-18" x="78.48" y="49.29">-</tspan><tspan class="cls-19" x="85.44" y="49.29">W</tspan><tspan class="cls-15" x="104.16" y="49.29">est</tspan></tspan></text><text class="cls-20" transform="translate(687.44 268.85) scale(1.02 1)">L<tspan class="cls-6" x="10.65" y="0">on</tspan><tspan class="cls-21" x="36.22" y="0">g</tspan><tspan class="cls-6" x="49.03" y="0">itude </tspan><tspan class="cls-8"><tspan x="-2.59" y="26">c</tspan><tspan class="cls-6" x="7.69" y="26">oo</tspan><tspan class="cls-22" x="33.12" y="26">r</tspan><tspan class="cls-6" x="40.56" y="26">din</tspan><tspan class="cls-7" x="72.03" y="26">a</tspan><tspan class="cls-21" x="83.13" y="26">t</tspan><tspan class="cls-13" x="90.75" y="26">e</tspan></tspan></text><text class="cls-23" transform="translate(823.86 285.25) scale(1.02 1)">GPS <tspan class="cls-24" x="43.75" y="0">Q</tspan><tspan class="cls-15" x="59.72" y="0">uali</tspan><tspan class="cls-25" x="94.82" y="0">t</tspan><tspan class="cls-15" x="102.78" y="0">y indic</tspan><tspan class="cls-7" x="166.21" y="0">a</tspan><tspan class="cls-21" x="177.31" y="0">t</tspan><tspan x="184.93" y="0">or</tspan><tspan x="60.81" y="24.65">0-i</tspan><tspan class="cls-26" x="85.47" y="24.65">n</tspan><tspan class="cls-7" x="98.03" y="24.65">v</tspan><tspan class="cls-15" x="109.11" y="24.65">alid</tspan><tspan x="32.81" y="49.29">1</tspan><tspan class="cls-27" x="44.7" y="49.29">-</tspan><tspan x="52.23" y="49.29">GPS fix (SPS)</tspan><tspan x="52.1" y="73.94">2-DGPS fix</tspan><tspan x="61.08" y="98.58">3-PPS fix</tspan><tspan x="-4.21" y="123.23">4-</tspan><tspan class="cls-28" x="14.9" y="123.23">R</tspan><tspan class="cls-15" x="27.46" y="123.23">eal</tspan><tspan class="cls-29" x="55.87" y="123.23"> </tspan><tspan class="cls-30" x="59.99" y="123.23">T</tspan><tspan class="cls-15" x="71.25" y="123.23">ime </tspan><tspan class="cls-31" x="112.68" y="123.23">K</tspan><tspan x="125.46" y="123.23">inem</tspan><tspan class="cls-32" x="174.7" y="123.23">a</tspan><tspan x="185.8" y="123.23">tic</tspan><tspan x="48.15" y="147.87">5-</tspan><tspan class="cls-33" x="67.26" y="147.87">F</tspan><tspan class="cls-15" x="78.18" y="147.87">lo</tspan><tspan class="cls-32" x="96.49" y="147.87">a</tspan><tspan x="107.59" y="147.87">t </tspan><tspan class="cls-25" x="120.4" y="147.87">R</tspan><tspan x="133.07" y="147.87">TK</tspan><tspan x="44.51" y="172.52">6</tspan><tspan class="cls-34" x="56.41" y="172.52">-</tspan><tspan x="64.03" y="172.52">estim</tspan><tspan class="cls-7" x="117.4" y="172.52">a</tspan><tspan class="cls-16" x="128.5" y="172.52">t</tspan><tspan x="136.12" y="172.52">ed</tspan><tspan x="-2.42" y="197.17">7-</tspan><tspan class="cls-35" x="16.69" y="197.17">M</tspan><tspan class="cls-15" x="35.34" y="197.17">anual input mode</tspan><tspan x="10.01" y="221.81">8-Simul</tspan><tspan class="cls-7" x="83.67" y="221.81">a</tspan><tspan class="cls-15" x="94.77" y="221.81">tion mode</tspan></text><text class="cls-36" transform="translate(1115.95 269.05) scale(1.02 1)">A<tspan class="cls-7" x="14.08" y="0">n</tspan><tspan class="cls-21" x="26.84" y="0">t</tspan><tspan class="cls-15" x="34.47" y="0">ena altitude </tspan><tspan class="cls-13"><tspan x="45.5" y="24.65">ab</tspan><tspan class="cls-37" x="69.86" y="24.65">o</tspan><tspan class="cls-38" x="82.42" y="24.65">v</tspan><tspan x="93.36" y="24.65">e </tspan><tspan x="1.88" y="49.29">mean-sea-le</tspan><tspan class="cls-39" x="120.45" y="49.29">v</tspan><tspan class="cls-15" x="131.39" y="49.29">el</tspan><tspan x="7.39" y="73.94">[in M(me</tspan><tspan class="cls-16" x="93.57" y="73.94">t</tspan><tspan x="101.19" y="73.94">ers)]</tspan><tspan x="39.63" y="98.58">M=unit</tspan></tspan></text><text class="cls-5" transform="translate(1308.5 53.25) scale(1.02 1)"><tspan class="cls-13">Heig<tspan class="cls-7" x="45.18" y="0">h</tspan><tspan class="cls-15" x="57.94" y="0">t of </tspan></tspan><tspan class="cls-13" x="-15.05" y="24.65">geoid ab</tspan><tspan class="cls-40" x="70.26" y="24.65">o</tspan><tspan x="82.82" y="24.65">v</tspan><tspan class="cls-15" x="93.76" y="24.65">e </tspan><tspan class="cls-13"><tspan x="10.35" y="49.29">WGS84</tspan><tspan x="-22.68" y="73.94">[in M(me</tspan><tspan class="cls-16" x="63.49" y="73.94">t</tspan><tspan x="71.11" y="73.94">ers)]</tspan><tspan x="9.55" y="98.58">M=unit</tspan></tspan></text><text class="cls-41" transform="translate(1359.8 264.16) scale(1.02 1)">T<tspan class="cls-15" x="11.26" y="0">ime sin</tspan><tspan class="cls-16" x="80.33" y="0">c</tspan><tspan class="cls-13" x="90.61" y="0">e last DGPS </tspan><tspan class="cls-13"><tspan x="65.43" y="24.65">upd</tspan><tspan class="cls-32" x="104.42" y="24.65">a</tspan><tspan class="cls-42" x="115.52" y="24.65">t</tspan><tspan class="cls-15" x="123.14" y="24.65">e</tspan><tspan x="42.18" y="49.29">[in se</tspan><tspan class="cls-21" x="93.18" y="49.29">c</tspan><tspan x="103.46" y="49.29">onds]</tspan></tspan></text><text class="cls-5" transform="translate(1477.01 125.77) scale(1.02 1)"><tspan class="cls-13">Di</tspan><tspan class="cls-43" x="20.93" y="0">ff</tspan><tspan class="cls-15" x="34.13" y="0">e</tspan><tspan x="45.75" y="0">r</tspan><tspan class="cls-15" x="53.19" y="0">e</tspan><tspan class="cls-44" x="64.81" y="0">n</tspan><tspan class="cls-13" x="77.58" y="0">tial </tspan><tspan class="cls-38" x="112.72" y="0">r</tspan><tspan class="cls-13" x="120.16" y="0">e</tspan><tspan class="cls-43" x="131.79" y="0">f</tspan><tspan class="cls-15" x="138.36" y="0">e</tspan><tspan class="cls-39" x="149.99" y="0">r</tspan><tspan class="cls-15" x="157.43" y="0">en</tspan><tspan class="cls-21" x="181.91" y="0">c</tspan><tspan class="cls-15" x="192.19" y="0">e </tspan><tspan class="cls-13"><tspan x="0.33" y="24.65">st</tspan><tspan class="cls-7" x="17.32" y="24.65">a</tspan><tspan class="cls-15" x="28.42" y="24.65">tion ID*Checksum</tspan></tspan></text><rect x="1016.75" y="168.63" width="96.25" height="64.75"/><text class="cls-45" transform="translate(6.38 211.76) scale(1.31 1)">$GPPGA<tspan class="cls-46" x="114.65" y="0" xml:space="preserve">  194159.00 </tspan><tspan class="cls-47" x="278.7" y="0" xml:space="preserve"> 3748.0203</tspan><tspan class="cls-48" x="428.37" y="0" xml:space="preserve">  N  </tspan><tspan class="cls-49" x="478.75" y="0">12223.8269</tspan><tspan class="cls-46" x="638.17" y="0"> </tspan><tspan class="cls-50" x="645.36" y="0"> </tspan><tspan class="cls-46" x="651.38" y="0" xml:space="preserve">W  </tspan><tspan class="cls-49" x="693.47" y="0">2</tspan><tspan class="cls-46" x="710.41" y="0" xml:space="preserve">   07  </tspan><tspan x="780.21" y="0">1.20</tspan><tspan class="cls-46" x="838.03" y="0" xml:space="preserve">   20.6  M  </tspan><tspan x="972.52" y="0">-25.2</tspan><tspan class="cls-46" x="1040.61" y="0" xml:space="preserve">  </tspan><tspan x="1054.99" y="0">M</tspan><tspan class="cls-46" x="1081.34" y="0" xml:space="preserve">  0.1 </tspan><tspan x="1143.8" y="0">0000*68</tspan></text><text class="cls-23" transform="translate(888.75 19.04) scale(1.02 1)">Number of s<tspan class="cls-7" x="118.55" y="0">a</tspan><tspan class="cls-21" x="129.65" y="0">t</tspan><tspan x="137.27" y="0">elli</tspan><tspan class="cls-16" x="165.64" y="0">t</tspan><tspan x="173.26" y="0">es </tspan><tspan x="30.21" y="24.65">being t</tspan><tspan class="cls-51" x="99.16" y="24.65">r</tspan><tspan class="cls-15" x="106.72" y="24.65">acked</tspan></text><line class="cls-52" x1="984" y1="50.11" x2="984" y2="170.11"/><line class="cls-52" x1="922.77" y1="234.48" x2="922.77" y2="262.64"/><text class="cls-23" transform="translate(992.55 104.86) scale(1.02 1)">Ho<tspan class="cls-28" x="27.78" y="0">r</tspan><tspan class="cls-15" x="35.54" y="0">i</tspan><tspan class="cls-40" x="41.09" y="0">z</tspan><tspan class="cls-15" x="50.89" y="0">o</tspan><tspan class="cls-44" x="63.61" y="0">n</tspan><tspan x="76.37" y="0">tal dilut</tspan><tspan class="cls-7" x="150.69" y="0">a</tspan><tspan class="cls-15" x="161.8" y="0">tion </tspan><tspan x="7.71" y="24.65">of p</tspan><tspan class="cls-39" x="45.52" y="24.65">r</tspan><tspan class="cls-15" x="52.96" y="24.65">ecision(HDOP)</tspan></text><line class="cls-52" x1="1064.2" y1="137.93" x2="1064.2" y2="166.09"/></g></g></svg>