<svg xmlns="http://www.w3.org/2000/svg" viewBox="0 0 1725.33 261.89"><defs><style>.cls-1{font-size:32.38px;fill:#fff;letter-spacing:0.01em;}.cls-1,.cls-11,.cls-19,.cls-44,.cls-48,.cls-8{font-family:MyriadPro-Regular, Myriad Pro;}.cls-2,.cls-3,.cls-5{fill:#000;}.cls-3,.cls-4{letter-spacing:0.01em;}.cls-5,.cls-6{letter-spacing:0.01em;}.cls-7{fill:none;stroke:#000;stroke-miterlimit:10;stroke-width:2px;}.cls-19,.cls-44,.cls-48,.cls-8{font-size:22.75px;}.cls-20,.cls-8{letter-spacing:0.01em;}.cls-9{letter-spacing:-0.02em;}.cls-10{letter-spacing:0em;}.cls-11{font-size:22.2px;}.cls-11,.cls-16{letter-spacing:0.01em;}.cls-12{letter-spacing:0.01em;}.cls-13{letter-spacing:0.01em;}.cls-14{letter-spacing:0.01em;}.cls-15{letter-spacing:0.01em;}.cls-17{letter-spacing:0em;}.cls-18{letter-spacing:0em;}.cls-21{letter-spacing:0.01em;}.cls-22{letter-spacing:0em;}.cls-23{letter-spacing:0.02em;}.cls-24{letter-spacing:0.03em;}.cls-25{letter-spacing:0.01em;}.cls-26{letter-spacing:0.02em;}.cls-27,.cls-44{letter-spacing:0.01em;}.cls-28{letter-spacing:0em;}.cls-29{letter-spacing:0.01em;}.cls-30{letter-spacing:0em;}.cls-31{letter-spacing:0.02em;}.cls-32{letter-spacing:0em;}.cls-33{letter-spacing:-0.02em;}.cls-34{letter-spacing:0em;}.cls-35{letter-spacing:0em;}.cls-36{letter-spacing:0.01em;}.cls-37{letter-spacing:0em;}.cls-38{letter-spacing:0.03em;}.cls-39{letter-spacing:-0.03em;}.cls-40{letter-spacing:0em;}.cls-41{letter-spacing:0em;}.cls-42{letter-spacing:0.02em;}.cls-43{letter-spacing:0em;}.cls-45{letter-spacing:0em;}.cls-46{letter-spacing:0em;}.cls-47{letter-spacing:0.02em;}.cls-48{letter-spacing:0.02em;}.cls-49{letter-spacing:0.01em;}</style></defs><g id="Layer_2" data-name="Layer 2"><g id="Layer_1-2" data-name="Layer 1"><rect x="14.86" y="88.2" width="164.55" height="64.75"/><rect x="375.93" y="88.2" width="53.27" height="64.75"/><rect x="686.28" y="88.2" width="53.27" height="64.75"/><rect x="1017.76" y="88.2" width="50.91" height="64.75"/><rect x="1183.69" y="88.2" width="119.57" height="64.75"/><rect x="1453.11" y="88.22" width="77.6" height="64.75"/><rect x="1583.79" y="88.2" width="105.79" height="64.75"/><text class="cls-1" transform="translate(18.25 131.5) scale(1.28 1)">$GPRMC<tspan class="cls-2" x="118.92" y="0" xml:space="preserve">  114210.00  </tspan><tspan x="290.16" y="0">A</tspan><tspan class="cls-3" x="310.3" y="0" xml:space="preserve">  4803.1183544  </tspan><tspan class="cls-4" x="532.34" y="0">N</tspan><tspan class="cls-2" x="553.96" y="0" xml:space="preserve">  01708.1048246  </tspan><tspan class="cls-4" x="792.94" y="0">E</tspan><tspan class="cls-3" x="809.19" y="0" xml:space="preserve">   0.124  </tspan><tspan class="cls-4" x="919.88" y="0">119.9</tspan><tspan class="cls-5" x="994.64" y="0" xml:space="preserve">   040722  </tspan><tspan class="cls-6" x="1132.17" y="0">0.0</tspan><tspan class="cls-5" x="1173.06" y="0" xml:space="preserve">   E   </tspan><tspan class="cls-6" x="1232.44" y="0">A*34</tspan></text><rect class="cls-7" x="17.75" y="88.2" width="1671.67" height="64.75"/><text class="cls-8" transform="translate(234.14 41.79) scale(1.02 1)">U<tspan class="cls-9" x="14.95" y="0">T</tspan><tspan x="25.87" y="0">C time</tspan><tspan x="-15.32" y="24.65">[hhmms</tspan><tspan class="cls-10" x="64.71" y="24.65">s</tspan><tspan x="73.7" y="24.65">.ss]</tspan></text><text class="cls-11" transform="translate(337.63 183.21) scale(1.28 1)">D<tspan class="cls-12" x="15.01" y="0">a</tspan><tspan x="25.84" y="0">ta st</tspan><tspan class="cls-13" x="65.85" y="0">a</tspan><tspan x="76.68" y="0">tus</tspan><tspan class="cls-14"><tspan x="19.85" y="24.05">A</tspan><tspan class="cls-15" x="33.59" y="24.05">-</tspan><tspan class="cls-12" x="40.52" y="24.05">v</tspan><tspan class="cls-16" x="51.33" y="24.05">alid</tspan></tspan><tspan class="cls-17"><tspan x="11.68" y="48.1">V</tspan><tspan class="cls-16" x="23.98" y="48.1">-i</tspan><tspan class="cls-18" x="36.43" y="48.1">n</tspan><tspan class="cls-12" x="48.69" y="48.1">v</tspan><tspan class="cls-16" x="59.5" y="48.1">alid</tspan></tspan></text><text class="cls-19" transform="translate(456.59 69.11) scale(1.02 1)"><tspan class="cls-20">L</tspan><tspan class="cls-21" x="10.97" y="0">a</tspan><tspan class="cls-20" x="22.07" y="0">ttitude </tspan><tspan class="cls-22" x="93.39" y="0">c</tspan><tspan class="cls-20" x="103.67" y="0">oo</tspan><tspan x="129.1" y="0">r</tspan><tspan class="cls-20" x="136.54" y="0">din</tspan><tspan class="cls-21" x="168" y="0">a</tspan><tspan class="cls-22" x="179.11" y="0">t</tspan><tspan class="cls-20" x="186.73" y="0">e</tspan></text><text class="cls-19" transform="translate(625.58 184.69) scale(1.02 1)"><tspan class="cls-20">L</tspan><tspan class="cls-21" x="10.97" y="0">a</tspan><tspan class="cls-20" x="22.07" y="0">ttitude di</tspan><tspan x="111.99" y="0">r</tspan><tspan class="cls-20" x="119.43" y="0">e</tspan><tspan class="cls-23" x="131.06" y="0">c</tspan><tspan class="cls-20" x="141.77" y="0">tion</tspan><tspan class="cls-20"><tspan x="50.75" y="24.65">N-No</tspan><tspan class="cls-24" x="101.08" y="24.65">r</tspan><tspan x="109.29" y="24.65">th</tspan></tspan><tspan class="cls-25"><tspan x="52.11" y="49.29">S</tspan><tspan class="cls-20" x="63.66" y="49.29">-</tspan><tspan class="cls-26" x="70.88" y="49.29">S</tspan><tspan class="cls-27" x="82.46" y="49.29">outh</tspan></tspan></text><text class="cls-19" transform="translate(946.46 184.25) scale(1.02 1)"><tspan class="cls-28">L</tspan><tspan class="cls-29" x="10.65" y="0">on</tspan><tspan class="cls-30" x="36.22" y="0">g</tspan><tspan class="cls-27" x="49.03" y="0">itude di</tspan><tspan x="123.44" y="0">r</tspan><tspan class="cls-27" x="130.88" y="0">e</tspan><tspan class="cls-31" x="142.5" y="0">c</tspan><tspan class="cls-29" x="153.22" y="0">tion</tspan><tspan class="cls-27"><tspan x="66.93" y="24.65">E-East</tspan></tspan><tspan class="cls-28"><tspan x="59.32" y="49.29">W</tspan><tspan class="cls-32" x="78.48" y="49.29">-</tspan><tspan class="cls-33" x="85.44" y="49.29">W</tspan><tspan class="cls-29" x="104.16" y="49.29">est</tspan></tspan></text><text class="cls-19" transform="translate(773.76 69.11) scale(1.02 1)"><tspan class="cls-34">L</tspan><tspan class="cls-20" x="10.65" y="0">on</tspan><tspan class="cls-35" x="36.22" y="0">g</tspan><tspan class="cls-20" x="49.03" y="0">itude </tspan><tspan class="cls-35" x="104.83" y="0">c</tspan><tspan class="cls-20" x="115.11" y="0">oo</tspan><tspan x="140.55" y="0">r</tspan><tspan class="cls-20" x="147.99" y="0">din</tspan><tspan class="cls-36" x="179.45" y="0">a</tspan><tspan class="cls-35" x="190.55" y="0">t</tspan><tspan class="cls-27" x="198.17" y="0">e</tspan></text><text class="cls-19" transform="translate(1031.42 19.04) scale(1.02 1)"><tspan class="cls-27">Speed </tspan><tspan class="cls-37" x="65.97" y="0">o</tspan><tspan x="78.53" y="0">v</tspan><tspan class="cls-29" x="89.47" y="0">er </tspan><tspan class="cls-35" x="113.82" y="0">g</tspan><tspan x="126.62" y="0">r</tspan><tspan class="cls-27" x="134.06" y="0">ound</tspan><tspan class="cls-27"><tspan x="47.39" y="24.65">[in </tspan><tspan class="cls-38" x="77.53" y="24.65">k</tspan><tspan class="cls-29" x="88.81" y="24.65">nots]</tspan><tspan x="36.88" y="49.29">0.0 </tspan><tspan class="cls-35" x="70.66" y="49.29">t</tspan><tspan class="cls-29" x="78.28" y="49.29">o 999.9</tspan></tspan></text><text class="cls-19" transform="translate(1161.91 185.32) scale(1.02 1)"><tspan class="cls-39">T</tspan><tspan class="cls-40" x="10.51" y="0">r</tspan><tspan class="cls-41" x="18.06" y="0">a</tspan><tspan x="29.07" y="0">v</tspan><tspan class="cls-27" x="40.02" y="0">el di</tspan><tspan x="80.9" y="0">r</tspan><tspan class="cls-29" x="88.34" y="0">e</tspan><tspan class="cls-42" x="99.96" y="0">c</tspan><tspan class="cls-29" x="110.68" y="0">tion</tspan><tspan class="cls-27"><tspan x="17.65" y="24.65">[in de</tspan><tspan class="cls-35" x="72.48" y="24.65">g</tspan><tspan class="cls-43" x="85.29" y="24.65">r</tspan><tspan class="cls-29" x="92.73" y="24.65">ees]</tspan><tspan x="18.93" y="49.29">0.0 </tspan><tspan class="cls-35" x="52.71" y="49.29">t</tspan><tspan class="cls-29" x="60.33" y="49.29">o 359.9</tspan></tspan></text><text class="cls-44" transform="translate(1350.88 47.48) scale(1.02 1)">D<tspan class="cls-36" x="15.38" y="0">a</tspan><tspan class="cls-45" x="26.48" y="0">t</tspan><tspan class="cls-29" x="34.1" y="0">e</tspan><tspan x="-27.02" y="24.65">[ddm</tspan><tspan class="cls-46" x="24.99" y="24.65">m</tspan><tspan class="cls-47" x="43.9" y="24.65">y</tspan><tspan x="55.11" y="24.65">y]</tspan></text><text class="cls-48" transform="translate(1397.4 176.42) scale(1.02 1)">M<tspan class="cls-29" x="18.65" y="0">a</tspan><tspan class="cls-35" x="29.85" y="0">g</tspan><tspan class="cls-29" x="42.66" y="0">netic </tspan><tspan class="cls-21" x="95.91" y="0">v</tspan><tspan class="cls-29" x="106.99" y="0">a</tspan><tspan class="cls-49" x="118.18" y="0">r</tspan><tspan class="cls-29" x="125.94" y="0">i</tspan><tspan class="cls-21" x="131.49" y="0">a</tspan><tspan class="cls-27" x="142.59" y="0">tion</tspan><tspan class="cls-27"><tspan x="33.61" y="24.65">[in de</tspan><tspan class="cls-35" x="88.44" y="24.65">g</tspan><tspan class="cls-43" x="101.25" y="24.65">r</tspan><tspan class="cls-29" x="108.69" y="24.65">ees]</tspan><tspan x="22.99" y="49.29">000.0 </tspan><tspan class="cls-35" x="80.57" y="49.29">t</tspan><tspan x="88.19" y="49.29">o 180.0</tspan><tspan x="22.99" y="73.94">000.0 </tspan><tspan class="cls-35" x="80.57" y="73.94">t</tspan><tspan x="88.19" y="73.94">o 180.0</tspan></tspan></text><text class="cls-48" transform="translate(1416.07 25.03) scale(1.02 1)">M<tspan class="cls-29" x="18.65" y="0">a</tspan><tspan class="cls-35" x="29.85" y="0">g</tspan><tspan class="cls-29" x="42.66" y="0">netic </tspan><tspan class="cls-21" x="95.91" y="0">v</tspan><tspan class="cls-29" x="106.99" y="0">a</tspan><tspan class="cls-49" x="118.18" y="0">r</tspan><tspan class="cls-29" x="125.94" y="0">i</tspan><tspan class="cls-21" x="131.49" y="0">a</tspan><tspan class="cls-27" x="142.59" y="0">tion di</tspan><tspan class="cls-43" x="205.13" y="0">r</tspan><tspan class="cls-29" x="212.57" y="0">e</tspan><tspan class="cls-31" x="224.2" y="0">c</tspan><tspan class="cls-29" x="234.91" y="0">tion</tspan><tspan class="cls-27"><tspan x="107.78" y="24.65">E-East</tspan></tspan><tspan class="cls-28"><tspan x="100.17" y="49.29">W</tspan><tspan class="cls-32" x="119.32" y="49.29">-</tspan><tspan class="cls-33" x="126.28" y="49.29">W</tspan><tspan class="cls-29" x="145.01" y="49.29">est</tspan></tspan></text><text class="cls-44" transform="translate(1613.17 178.89) scale(1.02 1)">Checksum</text></g></g></svg>