<svg id="Layer_1" data-name="Layer 1" xmlns="http://www.w3.org/2000/svg" viewBox="0 0 1698.77327 520.87406">
  <defs>
    <style>
      .cls-1 {
        fill: none;
        stroke-width: 2px;
      }

      .cls-1, .cls-80 {
        stroke: #000;
        stroke-miterlimit: 10;
      }

      .cls-2 {
        font-size: 22.61539px;
        letter-spacing: 0.01001em;
      }

      .cls-10, .cls-18, .cls-2, .cls-25, .cls-32, .cls-47, .cls-5, .cls-55, .cls-61, .cls-66, .cls-74, .cls-78, .cls-81 {
        font-family: MyriadPro-Regular, Myriad Pro;
      }

      .cls-3 {
        letter-spacing: -0.017em;
      }

      .cls-4 {
        letter-spacing: -0.00099em;
      }

      .cls-5 {
        font-size: 22.70897px;
      }

      .cls-6 {
        letter-spacing: 0.01em;
      }

      .cls-7 {
        letter-spacing: 0.006em;
      }

      .cls-8 {
        letter-spacing: 0.004em;
      }

      .cls-9 {
        letter-spacing: 0.00402em;
      }

      .cls-10, .cls-18 {
        font-size: 22.64889px;
      }

      .cls-11 {
        letter-spacing: 0.01001em;
      }

      .cls-12 {
        letter-spacing: 0.006em;
      }

      .cls-13 {
        letter-spacing: 0.00999em;
      }

      .cls-14 {
        letter-spacing: 0.02299em;
      }

      .cls-15 {
        letter-spacing: 0.034em;
      }

      .cls-16 {
        letter-spacing: 0.01499em;
      }

      .cls-17 {
        letter-spacing: 0.01601em;
      }

      .cls-18 {
        letter-spacing: -0.00399em;
      }

      .cls-19 {
        letter-spacing: 0.00399em;
      }

      .cls-20 {
        letter-spacing: -0.00004em;
      }

      .cls-21 {
        letter-spacing: 0.02302em;
      }

      .cls-22 {
        letter-spacing: -0.00099em;
      }

      .cls-23 {
        letter-spacing: -0.02297em;
      }

      .cls-24 {
        letter-spacing: 0.00997em;
      }

      .cls-25, .cls-32, .cls-78 {
        font-size: 22.73048px;
      }

      .cls-25 {
        letter-spacing: -0.00399em;
      }

      .cls-26, .cls-32 {
        letter-spacing: 0.01em;
      }

      .cls-27 {
        letter-spacing: 0.00402em;
      }

      .cls-28 {
        letter-spacing: 0.00399em;
      }

      .cls-29 {
        letter-spacing: 0.00002em;
      }

      .cls-30 {
        letter-spacing: 0.006em;
      }

      .cls-31, .cls-78 {
        letter-spacing: 0.01002em;
      }

      .cls-33 {
        letter-spacing: 0.013em;
      }

      .cls-34 {
        letter-spacing: 0.00998em;
      }

      .cls-35 {
        letter-spacing: 0.01898em;
      }

      .cls-36 {
        letter-spacing: -0.003em;
      }

      .cls-37 {
        letter-spacing: 0.02399em;
      }

      .cls-38 {
        letter-spacing: 0.01399em;
      }

      .cls-39 {
        letter-spacing: -0.03098em;
      }

      .cls-40 {
        letter-spacing: -0.00199em;
      }

      .cls-41 {
        letter-spacing: 0.01999em;
      }

      .cls-42 {
        letter-spacing: 0.00596em;
      }

      .cls-43 {
        letter-spacing: -0.00697em;
      }

      .cls-44 {
        letter-spacing: 0.028em;
      }

      .cls-45 {
        letter-spacing: 0.00397em;
      }

      .cls-46 {
        letter-spacing: 0.016em;
      }

      .cls-47 {
        font-size: 22.71687px;
      }

      .cls-48 {
        letter-spacing: 0.007em;
      }

      .cls-49 {
        letter-spacing: 0.00599em;
      }

      .cls-50 {
        letter-spacing: 0.00401em;
      }

      .cls-51 {
        letter-spacing: 0.01004em;
      }

      .cls-52 {
        letter-spacing: 0.00999em;
      }

      .cls-53 {
        letter-spacing: 0.00299em;
      }

      .cls-54 {
        letter-spacing: 0.00004em;
      }

      .cls-55 {
        font-size: 22.73838px;
        letter-spacing: 0.00998em;
      }

      .cls-56 {
        letter-spacing: 0.00602em;
      }

      .cls-57 {
        letter-spacing: 0.00299em;
      }

      .cls-58 {
        letter-spacing: 0.00004em;
      }

      .cls-59 {
        letter-spacing: 0.004em;
      }

      .cls-60 {
        letter-spacing: 0.01003em;
      }

      .cls-61 {
        font-size: 22.72569px;
        letter-spacing: -0.00199em;
      }

      .cls-62 {
        letter-spacing: 0.00999em;
      }

      .cls-63 {
        letter-spacing: 0.00398em;
      }

      .cls-64 {
        letter-spacing: 0.00601em;
      }

      .cls-65 {
        letter-spacing: 0.01003em;
      }

      .cls-66 {
        font-size: 22.86321px;
      }

      .cls-67 {
        letter-spacing: 0.00999em;
      }

      .cls-68 {
        letter-spacing: -0.003em;
      }

      .cls-69 {
        letter-spacing: 0.00004em;
      }

      .cls-70 {
        letter-spacing: 0.00597em;
      }

      .cls-71 {
        letter-spacing: 0.01003em;
      }

      .cls-72 {
        letter-spacing: 0.00398em;
      }

      .cls-73 {
        letter-spacing: 0.00601em;
      }

      .cls-74 {
        font-size: 32.35669px;
        fill: #fff;
        letter-spacing: 0.01em;
      }

      .cls-75, .cls-76, .cls-77 {
        fill: #000;
      }

      .cls-76 {
        letter-spacing: -0.02599em;
      }

      .cls-77 {
        letter-spacing: 0.00998em;
      }

      .cls-79 {
        letter-spacing: 0.00503em;
      }

      .cls-80 {
        stroke-width: 3px;
      }

      .cls-81 {
        font-size: 22.5983px;
      }

      .cls-82 {
        letter-spacing: 0.00998em;
      }

      .cls-83 {
        letter-spacing: 0.014em;
      }

      .cls-84 {
        letter-spacing: 0.01002em;
      }

      .cls-85 {
        letter-spacing: 0.00296em;
      }

      .cls-86 {
        letter-spacing: 0.00601em;
      }
    </style>
  </defs>
  <rect x="0.88822" y="168.64601" width="166" height="65"/>
  <rect x="365.75952" y="168.64601" width="209" height="65"/>
  <rect x="623.88822" y="168.64601" width="227" height="65"/>
  <rect x="897.41076" y="169.14601" width="51" height="64"/>
  <rect x="1270.85192" y="168.66841" width="162" height="65"/>
  <rect x="1493.08379" y="168.64601" width="171" height="65"/>
  <rect class="cls-1" x="1" y="169.14601" width="1663" height="64"/>
  <text class="cls-2" transform="translate(208.70023 122.51462) scale(1.02473 1)">U<tspan class="cls-3" x="14.85815" y="0">T</tspan><tspan x="25.71324" y="0">C time</tspan><tspan x="-15.23125" y="24.5">[hhmms</tspan><tspan class="cls-4" x="64.32957" y="24.5">s</tspan><tspan x="73.26294" y="24.5">.ss]</tspan></text>
  <text class="cls-5" transform="translate(366.31205 269.61813) scale(1.01719 1)"><tspan class="cls-6">L</tspan><tspan class="cls-7" x="10.94514" y="0">a</tspan><tspan class="cls-6" x="22.0271" y="0">ttitude </tspan><tspan class="cls-8" x="93.2183" y="0">c</tspan><tspan class="cls-6" x="103.48277" y="0">oo</tspan><tspan x="128.87151" y="0">r</tspan><tspan class="cls-6" x="136.29708" y="0">din</tspan><tspan class="cls-7" x="167.70299" y="0">a</tspan><tspan class="cls-9" x="178.78494" y="0">t</tspan><tspan class="cls-6" x="186.39244" y="0">e</tspan></text>
  <text class="cls-10" transform="translate(515.1973 103.42673) scale(1.02101 1)"><tspan class="cls-11">L</tspan><tspan class="cls-12" x="10.91665" y="0">a</tspan><tspan class="cls-11" x="21.96913" y="0">ttitude di</tspan><tspan x="111.49938" y="0">r</tspan><tspan class="cls-13" x="118.90531" y="0">e</tspan><tspan class="cls-14" x="130.47858" y="0">c</tspan><tspan class="cls-13" x="141.14608" y="0">tion</tspan><tspan class="cls-11"><tspan x="50.5288" y="24.53711">N-No</tspan><tspan class="cls-15" x="100.6272" y="24.53711">r</tspan><tspan x="108.80309" y="24.53711">th</tspan></tspan><tspan class="cls-16"><tspan x="51.87647" y="49.07324">S</tspan><tspan class="cls-13" x="63.38183" y="49.07324">-</tspan><tspan class="cls-17" x="70.56108" y="49.07324">S</tspan><tspan class="cls-13" x="82.0894" y="49.07324">outh</tspan></tspan></text>
  <text class="cls-18" transform="translate(773.06547 102.98434) scale(1.02101 1)">L<tspan class="cls-13" x="10.59959" y="0">on</tspan><tspan class="cls-19" x="36.05648" y="0">g</tspan><tspan class="cls-11" x="48.80716" y="0">itude di</tspan><tspan class="cls-20" x="122.89235" y="0">r</tspan><tspan class="cls-11" x="130.29733" y="0">e</tspan><tspan class="cls-21" x="141.8706" y="0">c</tspan><tspan class="cls-11" x="152.5381" y="0">tion</tspan><tspan class="cls-11"><tspan x="66.63239" y="24.53711">E-East</tspan></tspan><tspan x="59.05572" y="49.07324">W</tspan><tspan class="cls-22" x="78.12627" y="49.07324">-</tspan><tspan class="cls-23" x="85.05684" y="49.07324">W</tspan><tspan class="cls-24" x="103.69746" y="49.07324">est</tspan></text>
  <text class="cls-25" transform="translate(687.32328 268.61911) scale(1.01639 1)">L<tspan class="cls-26" x="10.63765" y="0">on</tspan><tspan class="cls-27" x="36.18616" y="0">g</tspan><tspan class="cls-26" x="48.98372" y="0">itude </tspan><tspan class="cls-28"><tspan x="-2.59131" y="25.97754">c</tspan><tspan class="cls-26" x="7.68267" y="25.97754">oo</tspan><tspan class="cls-29" x="33.09522" y="25.97754">r</tspan><tspan class="cls-26" x="40.52856" y="25.97754">din</tspan><tspan class="cls-30" x="71.96397" y="25.97754">a</tspan><tspan class="cls-27" x="83.05657" y="25.97754">t</tspan><tspan class="cls-31" x="90.67149" y="25.97754">e</tspan></tspan></text>
  <text class="cls-32" transform="translate(823.75297 285.01266) scale(1.01639 1)">GPS <tspan class="cls-33" x="43.71029" y="0">Q</tspan><tspan class="cls-34" x="59.667" y="0">uali</tspan><tspan class="cls-35" x="94.73958" y="0">t</tspan><tspan class="cls-34" x="102.69415" y="0">y indic</tspan><tspan class="cls-30" x="166.06749" y="0">a</tspan><tspan class="cls-27" x="177.16008" y="0">t</tspan><tspan class="cls-31" x="184.77453" y="0">or</tspan><tspan class="cls-31"><tspan x="60.75752" y="24.62402">0-i</tspan><tspan class="cls-36" x="85.39759" y="24.62402">n</tspan><tspan class="cls-30" x="97.94485" y="24.62402">v</tspan><tspan class="cls-34" x="109.01438" y="24.62402">alid</tspan></tspan><tspan x="32.77671" y="49.24902">1</tspan><tspan class="cls-37" x="44.66438" y="49.24902">-</tspan><tspan class="cls-31" x="52.18755" y="49.24902">GPS fix (SPS)</tspan><tspan class="cls-31"><tspan x="52.05159" y="73.87402">2-DGPS fix</tspan><tspan x="61.0304" y="98.49805">3-PPS fix</tspan></tspan><tspan x="-4.20548" y="123.12305">4-</tspan><tspan class="cls-38" x="14.88733" y="123.12305">R</tspan><tspan class="cls-31" x="27.43411" y="123.12305">eal</tspan><tspan class="cls-39" x="55.82423" y="123.12305"> </tspan><tspan class="cls-40" x="59.93843" y="123.12305">T</tspan><tspan class="cls-34" x="71.19004" y="123.12305">ime </tspan><tspan class="cls-41" x="112.58092" y="123.12305">K</tspan><tspan class="cls-31" x="125.35494" y="123.12305">inem</tspan><tspan class="cls-42" x="174.54379" y="123.12305">a</tspan><tspan class="cls-31" x="185.63542" y="123.12305">tic</tspan><tspan x="48.10841" y="147.74805">5-</tspan><tspan class="cls-43" x="67.2017" y="147.74805">F</tspan><tspan class="cls-34" x="78.1127" y="147.74805">lo</tspan><tspan class="cls-42" x="96.41043" y="147.74805">a</tspan><tspan class="cls-31" x="107.50206" y="147.74805">t </tspan><tspan class="cls-35" x="120.29914" y="147.74805">R</tspan><tspan class="cls-31" x="132.95978" y="147.74805">TK</tspan><tspan x="44.47125" y="172.37207">6</tspan><tspan class="cls-44" x="56.35892" y="172.37207">-</tspan><tspan class="cls-31" x="63.97337" y="172.37207">estim</tspan><tspan class="cls-30" x="117.29756" y="172.37207">a</tspan><tspan class="cls-45" x="128.39015" y="172.37207">t</tspan><tspan class="cls-31" x="136.00364" y="172.37207">ed</tspan><tspan x="-2.42077" y="196.99707">7-</tspan><tspan class="cls-46" x="16.67204" y="196.99707">M</tspan><tspan class="cls-31" x="35.31086" y="196.99707">anual input mode</tspan><tspan x="10.00111" y="221.62207">8-Simul</tspan><tspan class="cls-30" x="83.60087" y="221.62207">a</tspan><tspan class="cls-34" x="94.69346" y="221.62207">tion mode</tspan></text>
  <text class="cls-47" transform="translate(1115.64799 268.85446) scale(1.01952 1)"><tspan class="cls-48">A<tspan class="cls-49" x="14.06152" y="0">n</tspan><tspan class="cls-50" x="26.80501" y="0">t</tspan><tspan class="cls-51" x="34.41528" y="0">ena altitude </tspan></tspan><tspan class="cls-52"><tspan x="45.43365" y="24.60938">ab</tspan><tspan class="cls-53" x="69.76257" y="24.60938">o</tspan><tspan class="cls-54" x="82.30204" y="24.60938">v</tspan><tspan x="93.22941" y="24.60938">e </tspan></tspan><tspan class="cls-52" x="1.87455" y="49.21973">mean-sea-le</tspan><tspan x="120.27484" y="49.21973">v</tspan><tspan class="cls-52" x="131.20126" y="49.21973">el</tspan><tspan class="cls-52"><tspan x="7.38326" y="73.83008">[in M(me</tspan><tspan class="cls-50" x="93.43248" y="73.83008">t</tspan><tspan class="cls-51" x="101.04275" y="73.83008">ers)]</tspan><tspan x="39.57245" y="98.43945">M=unit</tspan></tspan></text>
  <text class="cls-55" transform="translate(1308.23099 53.17575) scale(1.01947 1)">Heig<tspan class="cls-56" x="45.15687" y="0">h</tspan><tspan x="57.91336" y="0">t of </tspan><tspan x="-15.04207" y="24.63281">geoid ab</tspan><tspan class="cls-57" x="70.22443" y="24.63281">o</tspan><tspan class="cls-58" x="82.77593" y="24.63281">v</tspan><tspan x="93.71336" y="24.63281">e </tspan><tspan x="10.34543" y="49.26563">WGS84</tspan><tspan x="-22.66991" y="73.89941">[in M(me</tspan><tspan class="cls-59" x="63.46062" y="73.89941">t</tspan><tspan class="cls-60" x="71.07793" y="73.89941">ers)]</tspan><tspan x="9.54941" y="98.53223">M=unit</tspan></text>
  <text class="cls-61" transform="translate(1359.8433 263.93747) scale(1.01501 1)">T<tspan class="cls-62" x="11.24916" y="0">ime sin</tspan><tspan class="cls-63" x="80.24407" y="0">c</tspan><tspan class="cls-62" x="90.51571" y="0">e last DGPS </tspan><tspan class="cls-62"><tspan x="65.35808" y="24.62012">upd</tspan><tspan class="cls-64" x="104.31065" y="24.62012">a</tspan><tspan class="cls-63" x="115.40106" y="24.62012">t</tspan><tspan x="123.01338" y="24.62012">e</tspan><tspan x="42.13335" y="49.23926">[in se</tspan><tspan class="cls-63" x="93.08362" y="49.23926">c</tspan><tspan class="cls-65" x="103.35526" y="49.23926">onds]</tspan></tspan></text>
  <text class="cls-66" transform="translate(1477.00053 125.54391) scale(1.00951 1)"><tspan class="cls-67">Di</tspan><tspan class="cls-68" x="21.03335" y="0">ff</tspan><tspan class="cls-67" x="34.29394" y="0">e</tspan><tspan class="cls-69" x="45.97677" y="0">r</tspan><tspan class="cls-67" x="53.45351" y="0">e</tspan><tspan class="cls-70" x="65.13633" y="0">n</tspan><tspan class="cls-71" x="77.96161" y="0">tial </tspan><tspan x="113.28483" y="0">r</tspan><tspan class="cls-71" x="120.7606" y="0">e</tspan><tspan class="cls-68" x="132.44439" y="0">f</tspan><tspan class="cls-71" x="139.05147" y="0">e</tspan><tspan x="150.73527" y="0">r</tspan><tspan class="cls-67" x="158.21104" y="0">en</tspan><tspan class="cls-72" x="182.81201" y="0">c</tspan><tspan class="cls-67" x="193.14537" y="0">e </tspan><tspan class="cls-67"><tspan x="0.33181" y="24.76855">st</tspan><tspan class="cls-73" x="17.41058" y="24.76855">a</tspan><tspan x="28.56813" y="24.76855">tion ID*Checksum</tspan></tspan></text>
  <rect x="1016.76394" y="168.33856" width="96" height="65"/>
  <text class="cls-74" transform="translate(6.5762 211.57712) scale(1.30648 1)">$GPPGA<tspan class="cls-75" x="114.57416" y="0" xml:space="preserve">  194159.00 </tspan><tspan x="278.51999" y="0" xml:space="preserve"> 3748.0203</tspan><tspan class="cls-75" x="428.10041" y="0" xml:space="preserve">  N  </tspan><tspan x="478.44567" y="0">12223.8269</tspan><tspan class="cls-75" x="637.76536" y="0"> </tspan><tspan class="cls-76" x="644.94825" y="0"> </tspan><tspan class="cls-75" x="650.96656" y="0" xml:space="preserve">W  </tspan><tspan x="693.02939" y="0">2</tspan><tspan class="cls-77" x="709.95154" y="0" xml:space="preserve">   07  </tspan><tspan x="779.70992" y="0">1.20</tspan><tspan class="cls-75" x="837.49669" y="0" xml:space="preserve">   20.6  M  </tspan><tspan x="971.90219" y="0">-25.2</tspan><tspan class="cls-75" x="1039.94585" y="0" xml:space="preserve">  </tspan><tspan x="1054.31163" y="0">M</tspan><tspan class="cls-77" x="1080.64976" y="0" xml:space="preserve">  0.1 </tspan><tspan x="1143.06342" y="0">0000*68</tspan></text>
  <text class="cls-78" transform="translate(888.64115 19.02536) scale(1.01639 1)">Number of s<tspan class="cls-30" x="118.44525" y="0">a</tspan><tspan class="cls-27" x="129.53784" y="0">t</tspan><tspan x="137.15229" y="0">elli</tspan><tspan class="cls-45" x="165.49725" y="0">t</tspan><tspan x="173.11074" y="0">es </tspan><tspan x="30.18492" y="24.62402">being t</tspan><tspan class="cls-79" x="99.07909" y="24.62402">r</tspan><tspan class="cls-34" x="106.62628" y="24.62402">acked</tspan></text>
  <line class="cls-80" x1="983.88822" y1="50.06918" x2="983.88822" y2="169.96693"/>
  <line class="cls-80" x1="922.65971" y1="234.27942" x2="922.65971" y2="262.41869"/>
  <text class="cls-81" transform="translate(992.48783 104.89352) scale(1.02181 1)"><tspan class="cls-82">Ho<tspan class="cls-83" x="27.59245" y="0">r</tspan><tspan class="cls-84" x="35.29839" y="0">i</tspan><tspan class="cls-85" x="40.81286" y="0">z</tspan><tspan class="cls-84" x="50.5516" y="0">o</tspan><tspan class="cls-86" x="63.18424" y="0">n</tspan><tspan class="cls-84" x="75.86181" y="0">tal dilut</tspan><tspan class="cls-86" x="149.68794" y="0">a</tspan><tspan x="160.71594" y="0">tion </tspan></tspan><tspan class="cls-82" x="7.66101" y="24.48145">of p</tspan><tspan x="45.21871" y="24.48145">r</tspan><tspan class="cls-84" x="52.6083" y="24.48145">ecision(HDOP)</tspan></text>
  <line class="cls-80" x1="1064.0923" y1="137.81068" x2="1064.0923" y2="165.94995"/>
</svg>
